<?xml version="1.0" standalone="no"?>
<!DOCTYPE svg PUBLIC "-//W3C//DTD SVG 20010904//EN"
 "http://www.w3.org/TR/2001/REC-SVG-20010904/DTD/svg10.dtd">
<svg version="1.0" xmlns="http://www.w3.org/2000/svg"
 width="960.000000pt" height="960.000000pt" viewBox="0 0 960.000000 960.000000"
 preserveAspectRatio="xMidYMid meet">
<metadata>
Created by potrace 1.14, written by Peter Selinger 2001-2017
</metadata>
<g transform="translate(0.000000,960.000000) scale(0.100000,-0.100000)"
fill="#000000" stroke="none">
<path d="M7200 7614 c-14 -2 -68 -12 -120 -20 -481 -81 -941 -419 -1260 -927
-50 -80 -173 -315 -207 -397 -9 -23 -11 -21 -27 35 -163 564 -722 1059 -1385
1225 -581 146 -1194 -110 -1556 -650 -141 -212 -241 -481 -295 -796 -27 -155
-27 -151 15 -156 40 -5 37 -13 55 117 86 596 400 1075 855 1302 212 106 475
164 674 149 355 -27 805 -229 1091 -490 262 -239 426 -507 494 -811 33 -143
68 -155 114 -39 198 497 488 879 852 1122 154 103 371 195 555 237 99 22 391
31 508 15 373 -51 740 -265 970 -567 314 -411 429 -953 328 -1553 -205 -1225
-1271 -2593 -3013 -3867 l-187 -137 20 -28 c11 -15 23 -28 26 -28 13 0 389
280 628 469 584 461 1204 1064 1591 1546 610 761 961 1510 1034 2207 14 138
12 405 -5 528 -61 453 -225 792 -521 1080 -215 209 -475 347 -773 411 -92 20
-395 35 -461 23z"/>
<path d="M4136 6990 c-382 -60 -716 -310 -876 -653 -76 -165 -113 -299 -135
-483 -22 -190 -22 -191 20 -196 19 -2 35 -2 35 2 0 3 5 57 10 120 35 392 187
708 435 906 210 168 506 262 739 234 380 -45 789 -305 1001 -636 80 -125 158
-317 181 -446 18 -103 59 -89 109 35 118 297 327 588 542 756 161 125 371 216
562 242 201 28 425 -10 616 -106 280 -139 481 -380 589 -705 214 -647 -43
-1501 -698 -2325 -228 -286 -557 -633 -816 -860 -69 -60 -127 -112 -130 -115
-26 -30 -346 -287 -568 -457 l-92 -71 23 -27 23 -27 105 78 c851 636 1523
1343 1899 1998 209 364 344 739 386 1076 22 178 15 430 -15 578 -56 269 -170
494 -340 675 -178 188 -394 307 -638 353 -118 22 -364 15 -473 -14 -415 -110
-746 -404 -970 -860 -30 -62 -57 -112 -60 -112 -4 0 -14 26 -24 58 -140 453
-563 834 -1061 958 -113 28 -284 39 -379 24z"/>
<path d="M4503 6360 c-262 -59 -501 -290 -598 -578 -57 -170 -75 -395 -46
-592 59 -402 273 -826 646 -1277 177 -214 522 -543 811 -774 213 -170 253
-199 276 -199 55 0 519 382 788 650 86 85 179 180 206 210 27 31 66 75 87 98
21 23 86 106 145 184 276 367 433 692 503 1043 28 139 31 386 6 510 -71 359
-311 637 -622 721 -127 34 -303 29 -430 -11 -250 -81 -478 -293 -617 -576 -29
-59 -57 -108 -63 -108 -5 0 -26 34 -45 76 -19 42 -64 121 -101 177 -237 361
-588 527 -946 446z m343 -80 c90 -23 182 -64 251 -112 87 -59 210 -187 277
-286 61 -91 148 -262 175 -344 23 -71 71 -61 101 20 74 198 177 363 309 492
259 256 566 318 857 175 310 -152 487 -528 445 -942 -38 -365 -193 -723 -486
-1123 -245 -334 -652 -732 -1087 -1064 -48 -36 -90 -66 -94 -66 -7 0 -56 37
-194 145 -590 467 -1030 964 -1263 1430 -123 246 -183 444 -207 685 -25 246
34 497 161 688 53 80 178 193 266 239 150 80 331 103 489 63z"/>
<path d="M4960 5364 c-258 -56 -473 -245 -488 -430 -16 -204 169 -294 372
-180 76 42 189 158 218 223 24 55 28 130 9 167 -45 84 -226 51 -345 -62 -105
-101 -126 -235 -44 -278 16 -9 36 -13 44 -10 18 7 18 36 0 36 -28 0 -46 29
-39 63 20 109 180 257 278 257 110 0 99 -142 -21 -263 -54 -54 -133 -109 -183
-125 -48 -17 -137 -15 -171 3 -45 23 -60 53 -60 118 0 81 36 152 123 244 121
127 228 185 383 205 97 13 217 0 292 -32 l48 -21 -101 -102 c-73 -75 -133
-151 -223 -284 -135 -198 -210 -280 -294 -318 -99 -44 -201 -42 -262 6 -32 25
-33 34 -3 36 52 4 76 80 33 108 -47 31 -106 -17 -106 -89 0 -74 94 -136 207
-136 108 0 278 71 373 157 49 44 117 143 160 234 22 45 23 46 50 33 47 -24
113 -28 167 -10 55 18 119 75 139 123 29 68 11 157 -41 209 -14 14 -23 29 -20
34 8 13 95 40 152 46 68 8 134 -21 157 -70 21 -44 21 -42 -16 -50 -40 -8 -194
-163 -253 -253 -35 -55 -44 -62 -75 -65 -24 -2 -36 -9 -38 -20 -3 -14 3 -18
27 -18 l31 0 -54 -87 c-29 -49 -84 -146 -122 -217 -106 -198 -216 -295 -321
-283 -26 3 -46 0 -53 -7 -16 -20 10 -36 60 -36 56 0 126 33 197 92 28 24 67
55 86 70 66 51 183 228 277 421 22 44 26 47 62 47 21 0 38 -3 38 -6 0 -4 -23
-46 -51 -95 -70 -123 -77 -190 -24 -225 36 -23 68 -11 130 47 49 46 54 49 60
30 12 -39 55 -80 90 -87 48 -9 93 9 163 66 56 45 62 48 62 27 0 -35 36 -86 66
-93 15 -4 40 -2 56 4 25 9 27 9 18 -9 -6 -10 -59 -43 -118 -74 -162 -83 -240
-150 -258 -222 -16 -61 36 -111 99 -97 119 25 276 175 352 335 11 22 33 46 56
58 21 12 65 44 98 72 l59 49 7 -28 c8 -40 55 -82 98 -89 49 -8 116 26 182 92
79 79 110 124 97 137 -8 8 -34 -13 -99 -80 -68 -70 -98 -93 -130 -103 -69 -20
-91 13 -56 85 14 29 24 37 67 47 91 21 155 49 181 80 33 40 32 72 -2 99 -35
27 -72 22 -169 -25 -60 -29 -87 -52 -168 -140 -54 -57 -116 -119 -138 -136
l-40 -32 20 39 c23 45 94 166 140 238 18 28 32 54 32 58 0 4 -22 8 -50 8 -31
0 -50 -4 -50 -12 0 -6 -9 -3 -20 7 -19 17 -26 18 -68 6 -84 -22 -153 -71 -272
-192 -91 -92 -124 -120 -157 -130 -69 -20 -91 13 -56 85 14 29 24 37 67 47
133 31 206 79 206 134 0 37 -46 68 -90 60 -102 -18 -196 -85 -290 -204 -92
-117 -140 -156 -140 -114 0 17 38 86 224 408 l115 200 -38 3 c-36 3 -39 5 -45
40 -7 45 -44 99 -88 127 -26 16 -49 20 -113 20 -69 0 -89 -4 -146 -31 l-65
-31 -47 23 c-102 52 -270 68 -407 38z m466 -159 c46 -111 -31 -256 -135 -255
-20 1 -48 6 -64 13 l-28 12 47 78 c46 78 137 187 156 187 5 0 16 -16 24 -35z
m341 -78 c-23 -35 -158 -177 -179 -188 -16 -9 -14 -3 9 33 55 85 101 144 139
178 33 28 40 31 42 16 2 -9 -3 -27 -11 -39z m-99 -197 c-21 -36 -27 -40 -63
-40 l-40 0 60 40 c33 22 61 40 63 40 1 0 -8 -18 -20 -40z m352 -94 c0 -23
-114 -106 -146 -106 -12 0 28 40 79 81 52 42 67 47 67 25z m330 -15 c0 -44
-179 -271 -215 -271 -25 0 -18 60 14 115 39 68 118 155 156 171 34 14 45 10
45 -15z m420 15 c0 -24 -114 -106 -146 -106 -12 0 47 60 90 91 44 32 56 36 56
15z m-646 -428 c-53 -89 -118 -179 -146 -204 -47 -41 -103 -61 -123 -44 -49
41 38 140 197 226 68 36 83 41 72 22z"/>
<path d="M820 5404 c-114 -31 -230 -125 -281 -230 -28 -56 -31 -71 -27 -129 5
-77 25 -110 89 -143 55 -29 124 -25 195 11 72 37 144 119 144 164 0 36 -27 27
-49 -15 -22 -43 -74 -93 -123 -118 -44 -23 -128 -23 -162 0 -88 57 -60 215 57
323 115 106 294 142 343 68 14 -22 13 -28 -15 -93 -17 -39 -31 -82 -31 -97 0
-62 56 -111 112 -98 17 4 7 -11 -42 -61 l-65 -67 -54 6 c-40 5 -56 3 -62 -7
-19 -29 -9 -38 38 -38 l48 0 -95 -96 c-110 -110 -198 -177 -278 -210 -110 -45
-248 -25 -302 43 -26 33 -25 41 3 36 50 -10 90 62 57 102 -31 37 -108 -3 -123
-63 -21 -86 80 -175 213 -188 155 -16 319 69 527 272 l107 105 104 -3 103 -3
-76 -110 c-96 -138 -109 -151 -167 -181 -36 -18 -64 -24 -112 -24 -73 0 -96
-6 -96 -26 0 -24 34 -34 88 -25 28 4 77 4 108 0 107 -14 186 12 268 90 45 43
48 44 42 19 -8 -35 7 -73 38 -94 33 -21 65 -13 110 26 l34 30 16 -25 c41 -62
85 -56 167 22 53 51 59 54 59 32 0 -35 36 -88 65 -95 13 -3 38 -1 55 4 28 10
29 10 20 -8 -6 -11 -59 -44 -118 -75 -136 -70 -196 -114 -233 -172 -44 -70
-37 -119 19 -142 55 -23 157 23 251 112 42 41 154 199 165 235 3 10 21 26 38
36 18 11 64 44 102 74 48 38 66 49 62 35 -16 -49 41 -111 89 -99 13 3 41 20
60 37 20 18 37 30 38 28 1 -2 7 -13 13 -24 6 -11 22 -26 36 -34 30 -17 68 -5
111 35 l27 25 26 -30 c45 -54 147 -51 222 6 18 14 34 23 35 22 28 -53 61 -75
98 -66 13 3 44 23 67 42 l42 36 10 -25 c13 -35 54 -60 85 -52 13 3 40 20 59
36 38 34 46 36 46 16 0 -20 48 -56 75 -56 12 0 39 15 60 33 l38 33 26 -28 c51
-56 161 -46 232 22 46 44 51 83 19 175 -26 77 -26 113 4 144 13 15 31 38 40
52 16 25 16 28 0 43 -23 24 -52 3 -84 -61 -35 -71 -109 -163 -130 -163 -31 0
-78 -48 -96 -98 -10 -26 -24 -55 -33 -66 -15 -17 -63 -46 -77 -46 -15 0 13 64
82 187 41 72 74 134 74 137 0 3 -21 6 -47 6 l-48 0 -70 -116 c-69 -114 -149
-214 -173 -214 -28 0 -7 54 68 183 44 75 80 139 80 142 0 3 -21 5 -47 5 l-48
0 -34 -65 c-19 -36 -38 -65 -41 -65 -4 0 -21 -23 -39 -50 -41 -64 -125 -150
-145 -150 -29 0 -17 31 61 167 l77 133 43 0 c36 0 43 3 43 20 0 16 -7 20 -35
20 l-35 0 30 53 c16 30 30 56 30 58 0 3 -20 4 -45 4 -45 -1 -47 -3 -79 -56
-27 -45 -38 -55 -66 -59 -43 -6 -56 -40 -16 -40 14 0 26 -2 26 -5 0 -5 -89
-145 -100 -158 -10 -11 -50 108 -50 148 0 19 8 39 20 50 12 10 30 34 42 53 21
34 21 35 3 48 -27 20 -54 0 -85 -63 -35 -70 -109 -163 -130 -163 -30 0 -72
-42 -96 -95 -13 -32 -38 -65 -62 -84 -87 -68 -82 -34 18 146 44 79 80 146 80
148 0 3 -21 5 -47 5 l-48 0 -70 -116 c-69 -114 -149 -214 -173 -214 -27 0 -8
53 68 183 44 75 80 139 80 142 0 3 -21 5 -47 5 l-48 0 -34 -65 c-19 -36 -39
-65 -45 -65 -5 0 -42 -36 -83 -80 -41 -44 -88 -90 -106 -102 -29 -21 -30 -21
-23 -2 4 10 45 83 92 160 46 78 84 144 84 148 0 3 -22 6 -50 6 -31 0 -50 -4
-50 -12 0 -6 -8 -4 -20 7 -14 13 -28 16 -54 11 -77 -15 -257 -136 -274 -185
-13 -36 -126 -151 -148 -151 -26 0 -10 41 72 186 41 72 74 134 74 138 0 3 -21
6 -47 6 l-48 0 -70 -116 c-69 -114 -149 -214 -173 -214 -27 0 -8 53 68 183 44
75 80 139 80 142 0 3 -21 5 -47 5 -48 0 -48 0 -77 -55 -17 -34 -35 -55 -46
-55 -9 0 -30 -19 -47 -42 -88 -121 -160 -171 -263 -181 l-55 -5 37 13 c115 42
234 167 317 332 99 199 193 318 284 362 46 22 52 23 129 11 65 -10 82 -10 88
0 14 22 0 39 -41 50 -40 11 -208 -1 -299 -21 -76 -17 -192 -68 -267 -119 -40
-26 -73 -44 -73 -39 0 5 7 12 15 15 19 8 20 34 1 34 -7 0 -34 -20 -58 -45 -37
-37 -52 -45 -82 -45 -32 0 -36 3 -36 25 0 13 11 49 25 79 73 161 -34 261 -225
210z m704 -182 c-55 -40 -168 -164 -217 -239 l-41 -63 -100 0 -100 0 59 61
c111 112 273 224 370 255 63 20 71 16 29 -14z m511 -410 c-16 -64 -174 -262
-209 -262 -26 0 -19 59 13 115 56 99 164 197 194 178 5 -3 6 -17 2 -31z m705
-138 c-17 -59 -73 -114 -116 -114 -59 0 -60 67 -2 90 48 19 68 40 68 69 0 13
12 43 28 65 l27 40 3 -55 c2 -30 -2 -73 -8 -95z m855 -9 c-23 -61 -70 -105
-112 -105 -58 0 -59 67 -1 90 48 19 68 40 68 69 0 13 12 43 28 65 l27 40 3
-59 c2 -37 -3 -75 -13 -100z m-1781 -257 c-57 -95 -119 -181 -153 -210 -46
-39 -96 -55 -117 -37 -48 40 40 140 198 225 68 36 83 41 72 22z"/>
<path d="M2557 4094 c-15 -15 -7 -45 11 -42 9 2 17 12 17 22 0 20 -16 31 -28
20z"/>
<path d="M2894 4085 c-7 -18 3 -35 22 -35 8 0 14 10 14 25 0 27 -27 35 -36 10z"/>
<path d="M3617 4093 c-4 -3 -7 -18 -7 -33 0 -23 -4 -26 -36 -26 -49 0 -74 -31
-74 -91 0 -64 32 -94 97 -90 l48 3 3 122 c2 98 0 122 -11 122 -8 0 -17 -3 -20
-7z m-19 -105 c18 -18 15 -87 -4 -95 -26 -10 -49 11 -52 46 -5 50 27 78 56 49z"/>
<path d="M2643 4078 c-26 -36 -38 -71 -25 -75 8 -3 12 -26 12 -68 0 -55 3 -66
21 -75 11 -7 27 -9 35 -6 19 7 18 36 -1 36 -11 0 -15 12 -15 50 0 36 4 52 15
56 8 4 15 12 15 20 0 8 -7 14 -15 14 -10 0 -15 10 -15 30 0 31 -11 39 -27 18z"/>
<path d="M2352 4032 c-7 -5 -24 -7 -38 -4 -24 4 -24 4 -24 -80 0 -89 3 -100
26 -91 10 3 14 22 14 57 0 58 18 93 44 83 12 -5 16 -20 16 -72 0 -37 4 -65 10
-65 6 0 13 0 18 0 4 0 9 27 12 61 4 45 10 65 23 73 25 16 37 -7 37 -75 0 -40
4 -59 14 -62 22 -9 26 2 26 74 0 58 -3 71 -22 89 -15 14 -30 19 -43 14 -25 -8
-54 -8 -80 0 -11 3 -26 2 -33 -2z"/>
<path d="M2748 4025 c-31 -17 -52 -71 -42 -109 8 -34 49 -66 83 -66 35 0 71
26 71 51 0 23 -22 25 -40 4 -15 -18 -42 -19 -58 -3 -22 22 -12 28 48 28 58 0
60 1 60 26 0 30 -50 84 -77 84 -10 -1 -30 -7 -45 -15z m66 -40 c4 -12 -3 -15
-31 -15 -30 0 -34 2 -23 15 7 8 20 15 30 15 10 0 20 -7 24 -15z"/>
<path d="M3007 4033 l-38 -4 3 -87 c2 -69 6 -87 18 -87 11 0 16 15 18 62 3 68
21 95 50 76 12 -7 17 -26 18 -67 1 -62 5 -71 30 -62 13 5 16 18 12 72 -3 55
-8 70 -27 85 -13 11 -28 18 -35 17 -6 -1 -28 -3 -49 -5z"/>
<path d="M3179 4025 c-15 -8 -29 -21 -33 -30 -8 -23 21 -31 43 -11 22 20 61
21 61 2 0 -8 -14 -17 -32 -21 -50 -10 -78 -32 -78 -60 0 -33 41 -60 78 -51 35
9 44 9 62 5 13 -3 14 8 12 71 -3 61 -7 78 -24 93 -24 20 -54 21 -89 2z m69
-112 c-4 -23 -68 -32 -68 -9 0 16 15 24 48 25 17 1 23 -4 20 -16z"/>
<path d="M3397 4033 c-4 -3 -20 -6 -37 -5 l-30 1 0 -83 c0 -87 3 -98 26 -89
10 4 14 23 14 63 0 60 16 88 45 76 11 -4 15 -21 15 -70 0 -46 4 -65 14 -69 22
-9 26 2 26 79 0 64 -3 75 -22 88 -24 17 -41 20 -51 9z"/>
<path d="M3725 4028 c-33 -19 -44 -41 -45 -86 0 -82 81 -122 136 -67 25 25 25
45 -1 45 -8 0 -18 -7 -23 -16 -12 -21 -56 -15 -60 9 -3 14 5 17 52 17 53 0 56
1 56 26 0 30 -50 84 -77 84 -10 0 -27 -6 -38 -12z m65 -43 c11 -13 7 -15 -30
-15 -37 0 -41 2 -30 15 7 8 20 15 30 15 10 0 23 -7 30 -15z"/>
<path d="M3895 4031 l-30 -6 -3 -81 c-3 -75 -1 -82 18 -87 17 -4 20 0 20 26 0
18 3 49 6 70 6 31 11 37 30 37 28 0 34 34 8 44 -9 3 -16 5 -17 5 -1 -1 -15 -4
-32 -8z"/>
<path d="M2550 3946 c0 -63 4 -85 14 -89 23 -9 26 2 26 90 0 76 -2 83 -20 83
-18 0 -20 -7 -20 -84z"/>
<path d="M2892 3943 c2 -70 6 -88 18 -88 12 0 16 18 18 88 3 82 2 87 -18 87
-20 0 -21 -5 -18 -87z"/>
<path d="M2768 3319 c-10 -5 -18 -21 -18 -34 0 -13 -6 -26 -12 -29 -10 -5 -10
-7 0 -12 8 -4 12 -30 12 -80 0 -59 3 -74 15 -74 12 0 15 14 15 70 0 54 4 72
15 76 8 4 15 10 15 15 0 5 -7 9 -15 9 -22 0 -18 31 5 37 11 3 20 12 20 19 0
16 -27 18 -52 3z"/>
<path d="M2860 3310 c0 -11 7 -20 15 -20 8 0 15 6 15 14 0 8 -7 16 -15 20 -10
4 -15 -1 -15 -14z"/>
<path d="M2915 3321 c-8 -15 3 -31 21 -31 9 0 14 7 12 17 -4 20 -24 28 -33 14z"/>
<path d="M3300 3305 c0 -8 7 -15 15 -15 8 0 15 7 15 15 0 8 -7 15 -15 15 -8 0
-15 -7 -15 -15z"/>
<path d="M4020 3287 c0 -32 -1 -32 -38 -29 -56 5 -77 -25 -73 -105 2 -41 35
-63 91 -62 l50 2 0 113 c0 95 -3 114 -15 114 -10 0 -15 -10 -15 -33z m-16 -63
c16 -16 21 -71 8 -90 -13 -19 -41 -23 -57 -8 -29 29 -11 114 25 114 5 0 16 -7
24 -16z"/>
<path d="M4145 3261 c-36 -7 -71 -67 -61 -107 16 -62 94 -86 137 -43 31 31 9
48 -26 21 -34 -27 -74 -13 -75 26 0 10 15 13 57 11 63 -3 72 5 53 50 -14 34
-44 49 -85 42z m43 -33 c22 -22 13 -38 -21 -38 -43 0 -51 9 -30 32 19 21 34
23 51 6z"/>
<path d="M2830 3197 c0 -88 15 -107 85 -105 l55 2 0 83 c0 67 -3 83 -15 83
-11 0 -15 -13 -15 -54 0 -72 -6 -86 -40 -86 -32 0 -40 18 -40 93 0 35 -4 47
-15 47 -12 0 -15 -14 -15 -63z"/>
<path d="M3010 3174 c0 -68 3 -84 15 -84 11 0 15 12 15 44 0 61 15 96 40 96
11 0 20 7 20 15 0 10 -12 14 -45 13 l-45 -1 0 -83z"/>
<path d="M3134 3239 c-29 -32 -26 -105 5 -130 42 -34 121 -17 121 27 0 18 -14
18 -30 -1 -17 -20 -66 -19 -74 1 -10 27 4 35 58 33 45 -3 51 -1 54 17 2 11 -7
32 -18 47 -28 35 -87 38 -116 6z m84 -11 c24 -24 13 -38 -28 -38 -43 0 -55 20
-22 39 23 14 36 13 50 -1z"/>
<path d="M3300 3175 c0 -69 3 -85 15 -85 12 0 15 16 15 85 0 69 -3 85 -15 85
-12 0 -15 -16 -15 -85z"/>
<path d="M3380 3174 c0 -68 3 -84 15 -84 12 0 15 13 15 59 0 66 16 93 50 84
18 -5 20 -14 20 -75 0 -61 2 -69 18 -66 24 5 30 110 7 144 -13 21 -23 24 -70
23 l-55 -2 0 -83z"/>
<path d="M3565 3238 c-14 -20 -14 -23 0 -26 8 -2 22 4 31 12 17 18 24 19 48
10 25 -10 18 -33 -11 -39 -48 -10 -78 -30 -81 -53 -6 -40 14 -52 83 -50 l62 2
-5 71 c-2 38 -9 76 -14 83 -6 6 -30 12 -54 12 -33 0 -46 -5 -59 -22z m95 -82
c0 -21 -27 -45 -47 -41 -10 2 -22 4 -26 4 -19 2 0 36 23 42 40 11 50 10 50 -5z"/>
<path d="M3736 3250 c-7 -14 -4 -137 3 -149 17 -27 31 1 31 59 0 50 3 61 21
70 35 19 49 -3 49 -76 0 -50 3 -64 15 -64 21 0 22 142 1 159 -13 11 -115 12
-120 1z"/>
<path d="M4270 3174 c0 -68 3 -84 15 -84 11 0 15 12 15 44 0 61 15 96 40 96
11 0 20 7 20 15 0 10 -12 14 -45 13 l-45 -1 0 -83z"/>
<path d="M3920 2615 c0 -33 -1 -34 -30 -29 -63 13 -108 -58 -80 -125 15 -36
59 -57 88 -42 14 8 23 8 27 1 17 -27 25 11 25 116 0 95 -3 114 -15 114 -10 0
-15 -11 -15 -35z m-16 -71 c31 -30 11 -104 -28 -104 -22 0 -36 23 -36 60 0 55
32 77 64 44z"/>
<path d="M4600 2630 c0 -11 7 -20 15 -20 8 0 15 9 15 20 0 11 -7 20 -15 20 -8
0 -15 -9 -15 -20z"/>
<path d="M4012 2574 c-12 -8 -22 -22 -22 -30 0 -19 29 -18 36 1 8 19 48 19 64
0 13 -16 12 -17 -45 -30 -64 -14 -85 -62 -39 -91 20 -14 32 -15 59 -7 22 7 37
7 43 1 21 -21 27 2 22 76 -3 53 -10 80 -20 86 -23 15 -73 12 -98 -6z m76 -106
c-19 -29 -56 -36 -65 -13 -7 21 12 35 51 35 27 0 28 -1 14 -22z"/>
<path d="M4269 2569 c-35 -35 -17 -61 65 -89 23 -9 26 -13 16 -25 -16 -19 -44
-19 -60 0 -13 16 -40 21 -40 7 0 -26 31 -47 68 -47 98 0 98 86 0 109 -16 4
-28 13 -28 21 0 21 47 19 58 -1 10 -19 32 -11 32 11 0 36 -79 46 -111 14z"/>
<path d="M4435 2565 c-17 -16 -25 -35 -25 -59 0 -48 8 -65 41 -81 41 -22 66
-18 96 11 21 21 23 28 12 35 -9 5 -21 1 -36 -13 -19 -18 -27 -20 -48 -10 -14
6 -25 18 -25 27 0 12 13 15 61 15 l62 0 -7 33 c-13 65 -85 89 -131 42z m83
-17 c21 -21 13 -28 -28 -28 -22 0 -40 4 -40 8 0 14 23 32 40 32 9 0 21 -5 28
-12z"/>
<path d="M4602 2503 c2 -58 7 -88 16 -91 9 -3 12 19 12 87 0 75 -3 91 -15 91
-13 0 -15 -14 -13 -87z"/>
<path d="M4673 2574 c-2 -6 -3 -44 -1 -85 2 -58 6 -74 18 -74 11 0 16 15 18
60 3 66 15 87 46 83 18 -3 22 -12 26 -73 4 -53 9 -70 20 -70 20 0 26 110 7
145 -11 22 -19 25 -71 25 -34 1 -60 -4 -63 -11z"/>
</g>
</svg>
